# xmcd
#
# Track frame offsets: 
#        150
#        29403
#        46715
#        65021
#        84906
#        105614
#        122921
#        158980
#        182267
#        211197
#        228504
#        247998
#
# Disc length: 3631 seconds
#
# Revision: 0
# Processed by: cddbd v1.5.2PL0 Copyright (c) Steve Scherf et al.
# Submitted via: ExactAudioCopyFreeDBPlugin 1.0
#
DISCID=930e2d0c
DTITLE=Pakarina - Native Andean Fusion
DYEAR=2015
DGENRE=Folk
TTITLE0=Tayta Wirak'ocha
TTITLE1=Cusi Coillor
TTITLE2=Llaqui Tradicional
TTITLE3=Otavalena
TTITLE4=Nostalgia
TTITLE5=Atahuallpa
TTITLE6=Willka Kuty
TTITLE7=Juyarcanimi
TTITLE8=Tor Cheney Nahana
TTITLE9=Tupak Amaru
TTITLE10=Emeralda
TTITLE11=Maht Ichi
EXTD=
EXTT0=
EXTT1=
EXTT2=
EXTT3=
EXTT4=
EXTT5=
EXTT6=
EXTT7=
EXTT8=
EXTT9=
EXTT10=
EXTT11=
PLAYORDER=
